<svg width="12" height="12" viewBox="0 0 12 12" fill="none" xmlns="http://www.w3.org/2000/svg">
<path d="M8.14314 7.14497L5.99814 9.29497L3.85314 7.14497C3.75899 7.05082 3.63129 6.99792 3.49814 6.99792C3.36499 6.99792 3.23729 7.05082 3.14314 7.14497C3.04899 7.23912 2.99609 7.36682 2.99609 7.49997C2.99609 7.63312 3.04899 7.76082 3.14314 7.85497L5.64314 10.355C5.68962 10.4018 5.74492 10.439 5.80585 10.4644C5.86678 10.4898 5.93213 10.5029 5.99814 10.5029C6.06415 10.5029 6.1295 10.4898 6.19043 10.4644C6.25136 10.439 6.30666 10.4018 6.35314 10.355L8.85314 7.85497C8.89976 7.80835 8.93674 7.75301 8.96197 7.69209C8.9872 7.63118 9.00019 7.5659 9.00019 7.49997C9.00019 7.43404 8.9872 7.36876 8.96197 7.30784C8.93674 7.24693 8.89976 7.19159 8.85314 7.14497C8.80652 7.09835 8.75117 7.06137 8.69026 7.03614C8.62935 7.01091 8.56407 6.99792 8.49814 6.99792C8.43221 6.99792 8.36693 7.01091 8.30602 7.03614C8.2451 7.06137 8.18976 7.09835 8.14314 7.14497ZM3.85314 4.85497L5.99814 2.70497L8.14314 4.85497C8.18962 4.90183 8.24492 4.93903 8.30585 4.96442C8.36678 4.9898 8.43213 5.00287 8.49814 5.00287C8.56415 5.00287 8.6295 4.9898 8.69043 4.96442C8.75136 4.93903 8.80666 4.90183 8.85314 4.85497C8.9 4.80849 8.9372 4.75319 8.96259 4.69226C8.98797 4.63133 9.00104 4.56598 9.00104 4.49997C9.00104 4.43396 8.98797 4.36861 8.96259 4.30768C8.9372 4.24675 8.9 4.19145 8.85314 4.14497L6.35314 1.64497C6.30666 1.59811 6.25136 1.56091 6.19043 1.53552C6.1295 1.51014 6.06415 1.49707 5.99814 1.49707C5.93213 1.49707 5.86678 1.51014 5.80585 1.53552C5.74492 1.56091 5.68962 1.59811 5.64314 1.64497L3.14314 4.14497C3.09652 4.19159 3.05954 4.24693 3.03431 4.30784C3.00908 4.36876 2.99609 4.43404 2.99609 4.49997C2.99609 4.63312 3.04899 4.76082 3.14314 4.85497C3.23729 4.94912 3.36499 5.00202 3.49814 5.00202C3.63129 5.00202 3.75899 4.94912 3.85314 4.85497Z" fill="white"/>
</svg>
